<svg width="24" height="24" viewBox="0 0 24 24" fill="none" xmlns="http://www.w3.org/2000/svg">
<path d="M15 15.5C14.7164 14.3589 13.481 13.5 12 13.5C10.519 13.5 9.28364 14.3589 9 15.5M12 9.5H12.01M13 9.5C13 10.0523 12.5523 10.5 12 10.5C11.4477 10.5 11 10.0523 11 9.5C11 8.94772 11.4477 8.5 12 8.5C12.5523 8.5 13 8.94772 13 9.5ZM6.6 4H17.4C18.6601 4 19.2902 4 19.7715 4.21799C20.1948 4.40973 20.539 4.71569 20.7548 5.09202C21 5.51984 21 6.0799 21 7.2V16.8C21 17.9201 21 18.4802 20.7548 18.908C20.539 19.2843 20.1948 19.5903 19.7715 19.782C19.2902 20 18.6601 20 17.4 20H6.6C5.33988 20 4.70982 20 4.22852 19.782C3.80516 19.5903 3.46095 19.2843 3.24524 18.908C3 18.4802 3 17.9201 3 16.8V7.2C3 6.0799 3 5.51984 3.24524 5.09202C3.46095 4.71569 3.80516 4.40973 4.22852 4.21799C4.70982 4 5.33988 4 6.6 4Z" stroke="#313131" stroke-width="2" stroke-linecap="round" stroke-linejoin="round"/>
</svg>
