<svg width="6" height="22" viewBox="0 0 6 22" fill="none" xmlns="http://www.w3.org/2000/svg">
<path d="M3.19314 11.1945H3.20675M3.19314 3.02786H3.20675M3.19314 19.3612H3.20675M4.55425 11.1945C4.55425 11.9462 3.94486 12.5556 3.19314 12.5556C2.44142 12.5556 1.83203 11.9462 1.83203 11.1945C1.83203 10.4428 2.44142 9.83341 3.19314 9.83341C3.94486 9.83341 4.55425 10.4428 4.55425 11.1945ZM4.55425 19.3612C4.55425 20.1129 3.94486 20.7223 3.19314 20.7223C2.44142 20.7223 1.83203 20.1129 1.83203 19.3612C1.83203 18.6095 2.44142 18.0001 3.19314 18.0001C3.94486 18.0001 4.55425 18.6095 4.55425 19.3612ZM4.55425 3.02786C4.55425 3.77958 3.94486 4.38897 3.19314 4.38897C2.44142 4.38897 1.83203 3.77958 1.83203 3.02786C1.83203 2.27614 2.44142 1.66675 3.19314 1.66675C3.94486 1.66675 4.55425 2.27614 4.55425 3.02786Z" stroke="#10A5FF" stroke-width="2" stroke-linecap="round" stroke-linejoin="round"/>
</svg>
