<svg width="18" height="18" viewBox="0 0 18 18" fill="none" xmlns="http://www.w3.org/2000/svg">
<path d="M16 7V13.8C16 14.9201 16 15.4802 15.782 15.908C15.5903 16.2843 15.2843 16.5903 14.908 16.782C14.4802 17 13.9201 17 12.8 17H5.2C4.0799 17 3.51984 17 3.09202 16.782C2.71569 16.5903 2.40973 16.2843 2.21799 15.908C2 15.4802 2 14.9201 2 13.8V7M6 11H12M2.6 1H15.4C15.9601 1 16.2401 1 16.454 1.10899C16.6422 1.20487 16.7951 1.35785 16.891 1.54601C17 1.75992 17 2.03995 17 2.6V5.4C17 5.96005 17 6.24008 16.891 6.45399C16.7951 6.64215 16.6422 6.79513 16.454 6.89101C16.2401 7 15.9601 7 15.4 7H2.6C2.03995 7 1.75992 7 1.54601 6.89101C1.35785 6.79513 1.20487 6.64215 1.10899 6.45399C1 6.24008 1 5.96005 1 5.4V2.6C1 2.03995 1 1.75992 1.10899 1.54601C1.20487 1.35785 1.35785 1.20487 1.54601 1.10899C1.75992 1 2.03995 1 2.6 1Z" stroke="#313131" stroke-width="1.5" stroke-linecap="round" stroke-linejoin="round"/>
</svg>
