<svg width="18" height="18" viewBox="0 0 18 18" fill="none" xmlns="http://www.w3.org/2000/svg">
<path id="Icon" d="M5 5.00053H13M5 9.00052H13M5 13.0005H13M4.2 1H13.8C14.9201 1 15.4802 1 15.908 1.21799C16.2843 1.40973 16.5903 1.71569 16.782 2.09202C17 2.51984 17 3.0799 17 4.2V13.8C17 14.9201 17 15.4802 16.782 15.908C16.5903 16.2843 16.2843 16.5903 15.908 16.782C15.4802 17 14.9201 17 13.8 17H4.2C3.0799 17 2.51984 17 2.09202 16.782C1.71569 16.5903 1.40973 16.2843 1.21799 15.908C1 15.4802 1 14.9201 1 13.8V4.2C1 3.0799 1 2.51984 1.21799 2.09202C1.40973 1.71569 1.71569 1.40973 2.09202 1.21799C2.51984 1 3.0799 1 4.2 1Z" stroke="#313131" stroke-width="2" stroke-linecap="round" stroke-linejoin="round"/>
</svg>
