<svg width="22" height="5" viewBox="0 0 22 5" fill="none" xmlns="http://www.w3.org/2000/svg">
<path d="M11.1949 2.19412L11.1949 2.20773M19.3615 2.19412L19.3615 2.20773M3.02821 2.19412L3.02821 2.20773M11.1949 3.55523C10.4432 3.55523 9.83377 2.94584 9.83377 2.19412C9.83377 1.4424 10.4432 0.833007 11.1949 0.833007C11.9466 0.833007 12.556 1.4424 12.556 2.19412C12.556 2.94584 11.9466 3.55523 11.1949 3.55523ZM3.02821 3.55523C2.27649 3.55523 1.6671 2.94584 1.6671 2.19412C1.6671 1.4424 2.27649 0.833007 3.02821 0.833007C3.77994 0.833007 4.38933 1.4424 4.38933 2.19412C4.38933 2.94584 3.77993 3.55523 3.02821 3.55523ZM19.3615 3.55523C18.6098 3.55523 18.0004 2.94584 18.0004 2.19412C18.0004 1.4424 18.6098 0.833008 19.3615 0.833008C20.1133 0.833008 20.7227 1.4424 20.7227 2.19412C20.7227 2.94584 20.1133 3.55523 19.3615 3.55523Z" stroke="#313131" stroke-width="1.5" stroke-linecap="round" stroke-linejoin="round"/>
</svg>
