<svg width="18" height="19" viewBox="0 0 18 19" fill="none" xmlns="http://www.w3.org/2000/svg">
<path id="Icon" d="M13.5 1L9 1L4.5 1M15.2222 3.84146L2.77778 3.84146M12.7333 6.57317L5.26667 6.57317C3.77319 6.57317 3.02646 6.57317 2.45603 6.82837C1.95426 7.05286 1.54631 7.41106 1.29065 7.85163C1 8.3525 1 9.00817 1 10.3195L1 13.7537C1 15.065 1 15.7207 1.29065 16.2215C1.54631 16.6621 1.95426 17.0203 2.45603 17.2448C3.02646 17.5 3.77319 17.5 5.26667 17.5L12.7333 17.5C14.2268 17.5 14.9735 17.5 15.544 17.2448C16.0457 17.0203 16.4537 16.6621 16.7094 16.2215C17 15.7207 17 15.065 17 13.7537L17 10.3195C17 9.00817 17 8.3525 16.7094 7.85163C16.4537 7.41106 16.0457 7.05286 15.544 6.82837C14.9735 6.57317 14.2268 6.57317 12.7333 6.57317Z" stroke="#313131" stroke-width="2" stroke-linecap="round" stroke-linejoin="round"/>
</svg>
