<svg width="130" height="22" viewBox="0 0 130 22" fill="none" xmlns="http://www.w3.org/2000/svg">
<g clip-path="url(#clip0_241_943)">
<mask id="mask0_241_943" style="mask-type:alpha" maskUnits="userSpaceOnUse" x="0" y="0" width="130" height="22">
<path d="M15.77 12.2122C15.0716 11.4227 14.2379 10.9175 13.3013 10.6389C13.1378 10.5909 12.9743 10.5524 12.8087 10.5083C12.6271 10.4583 12.5605 10.2566 12.6755 10.1029C12.7058 10.0626 12.7482 10.0338 12.7866 10.005C13.5011 9.47669 14.2137 8.95993 14.9283 8.45275C15.2654 8.2126 15.6045 7.97826 15.8871 7.66321C16.1556 7.36544 16.3675 7.02734 16.4483 6.59318C16.5088 6.26854 16.5189 5.93814 16.4664 5.59617C16.3231 4.63757 15.877 3.90373 15.0695 3.42539C14.6437 3.17374 14.1975 3.06232 13.7474 2.98932C11.525 2.62624 9.30048 2.24204 7.08206 1.8463C4.81114 1.42367 2.54023 0.989515 0.281435 0.534229C0.0109445 0.476598 0.0432418 0.453545 0.0432418 0.785885C0.0432418 2.41493 0.0432418 4.04397 0.0432418 5.67109C0.0432418 5.98035 0.0432418 5.98035 0.27336 6.01498C3.28912 6.45872 6.3089 6.87749 9.33276 7.27514C9.39329 7.28284 9.45592 7.29242 9.51645 7.30012C9.61536 7.31165 9.70015 7.35585 9.74254 7.47685C9.78696 7.60559 9.74859 7.7093 9.6759 7.78614C9.61537 7.84957 9.54471 7.89949 9.47203 7.94558C8.58791 8.50461 7.70176 9.07516 6.81556 9.663C6.58145 9.81862 6.36141 9.99534 6.16562 10.2182C5.99809 10.4084 5.87696 10.6389 5.83253 10.9252C5.77601 11.2882 5.79619 11.657 5.8951 12.0221C6.04449 12.5734 6.33111 12.9422 6.80143 13.0536C7.03159 13.1074 7.26576 13.1555 7.49789 13.1747C8.47487 13.2553 9.45388 13.3226 10.4309 13.3937C10.5661 13.4033 10.7034 13.4052 10.8366 13.4359C11.0001 13.4725 11.1616 13.5262 11.3211 13.5916C11.5169 13.6722 11.6663 13.8297 11.7793 14.0334C12.0296 14.481 12.074 14.9497 11.967 15.4357C11.8479 15.9775 11.5572 16.3175 11.0647 16.3847C10.8648 16.4116 10.661 16.4155 10.4591 16.4078C7.03763 16.256 3.61815 16.0927 0.198673 15.9179C-0.0193343 15.9045 0.000851589 15.866 0.000851589 16.1561C0.000851589 17.7621 0.000851589 19.3662 0.000851589 20.9722C0.000851589 21.245 -0.0233714 21.2123 0.186561 21.2161C0.210784 21.2161 0.235007 21.2161 0.261249 21.2161C4.08647 21.2161 7.91169 21.2161 11.7369 21.2161C11.9892 21.2161 12.2415 21.1988 12.4918 21.1816C13.0106 21.1432 13.5132 21.0125 13.9957 20.7974C14.7264 20.4688 15.3704 19.9982 15.877 19.3277C16.5896 18.3865 16.9408 17.3049 16.9569 16.0754C16.967 15.3339 16.8984 14.602 16.6784 13.8816C16.4907 13.2553 16.196 12.6944 15.77 12.2122Z" fill="black"/>
<path d="M35.6537 13.4917C34.9634 12.1528 33.8935 11.1999 32.4543 10.6333C31.8769 10.4066 31.2795 10.2798 30.6739 10.226C30.0279 10.1683 29.3799 10.1223 28.734 10.0742C28.1608 10.032 27.5895 9.96664 27.0182 9.97816C26.6892 9.98393 26.3561 9.9801 26.0332 10.0358C25.9746 10.0454 25.912 10.0474 25.8495 10.0435C25.7586 10.0377 25.7203 9.98393 25.7566 9.90326C25.7929 9.82066 25.8414 9.74189 25.8938 9.66887C26.7518 8.47591 27.6137 7.306 28.4716 6.15336C28.6754 5.87867 28.8612 5.59244 28.9985 5.27355C29.0953 5.04686 29.0873 5.08144 28.8672 5.05647C27.2786 4.87589 25.688 4.68379 24.1014 4.48208C24.0711 4.47824 24.0388 4.47824 24.0085 4.47055C23.9258 4.4475 23.8914 4.48592 23.8591 4.557C23.7905 4.7126 23.7219 4.87013 23.629 5.00844C22.7368 6.35507 21.8385 7.72481 20.9463 9.12718C20.4073 9.97046 19.8623 10.8215 19.3416 11.6994C18.8248 12.5697 18.4655 13.5321 18.3867 14.6233C18.3383 15.3129 18.3767 15.9987 18.5382 16.673C18.7945 17.7488 19.289 18.6824 19.9935 19.4681C20.6556 20.2058 21.4449 20.7091 22.3573 20.9704C22.979 21.149 23.6149 21.2143 24.2568 21.2162C25.2984 21.2201 26.3379 21.2182 27.3795 21.2182C28.415 21.2182 29.4486 21.2182 30.4841 21.2182C30.9706 21.2182 31.4551 21.1759 31.9314 21.076C33.6251 20.7187 34.8685 19.787 35.6618 18.3212C36.1422 17.4356 36.3138 16.4828 36.225 15.4724C36.1664 14.7808 35.9787 14.1238 35.6537 13.4917ZM31.5197 16.5597C31.2633 16.8536 30.9363 17.0245 30.5487 17.0783C30.367 17.1033 30.1814 17.111 29.9977 17.1072C28.2919 17.063 26.5862 17.0092 24.8805 16.9554C24.5717 16.9458 24.2649 16.9131 23.9782 16.769C23.3424 16.4483 22.9972 15.9103 22.9407 15.1765C22.9225 14.9421 22.9306 14.7078 23.0033 14.4869C23.2192 13.8279 23.6573 13.4438 24.3133 13.3458C24.5273 13.3131 24.7533 13.3227 24.9734 13.3342C25.799 13.3784 26.6226 13.4284 27.4482 13.4744C28.2677 13.5206 29.0852 13.5647 29.9048 13.607C30.1692 13.6205 30.4316 13.6455 30.692 13.7281C31.3238 13.9317 31.9234 14.5733 31.9375 15.3437C31.9456 15.8085 31.8244 16.2119 31.5197 16.5597Z" fill="black"/>
<path d="M107.135 20.4282C106.992 20.0805 106.842 19.7366 106.695 19.3928C105.611 16.8685 104.503 14.3539 103.372 11.8469C102.771 10.5138 102.17 9.19589 101.566 7.8954C101.394 7.52461 101.191 7.17305 100.942 6.85417C100.583 6.3912 100.151 6.0243 99.6199 5.77454C98.9925 5.48062 98.308 5.39033 97.5936 5.41915C97.0199 5.4422 96.4468 5.52289 95.8799 5.68617C94.8947 5.97239 94.083 6.5122 93.4449 7.31138C93.108 7.73402 92.8458 8.18929 92.6259 8.6676C91.9595 10.1122 91.2954 11.5396 90.6313 12.9515C89.4545 15.4489 88.2596 17.9366 87.05 20.4186C86.9817 20.5589 86.9432 20.7106 86.885 20.8528C86.8584 20.9181 86.8867 20.9296 86.9472 20.9258C86.9935 20.9238 87.0421 20.9258 87.0885 20.9258C88.3947 20.9238 89.7026 20.922 91.0088 20.92C91.1682 20.92 91.3276 20.92 91.487 20.9181C91.5983 20.9181 91.5961 20.9143 91.6306 20.8163C91.7074 20.603 91.7781 20.3879 91.8685 20.1785C92.0827 19.6944 92.3088 19.2122 92.527 18.7243C92.557 18.657 92.5931 18.6205 92.67 18.6302C92.7101 18.634 92.7525 18.6302 92.7932 18.6282C94.2306 18.6071 95.6679 18.584 97.1047 18.5591C98.5664 18.5341 100.026 18.5091 101.487 18.4764C101.608 18.4745 101.675 18.5014 101.724 18.6225C102.012 19.3563 102.379 20.0613 102.62 20.8278C102.634 20.8739 102.662 20.897 102.711 20.8931C102.745 20.8912 102.781 20.8931 102.817 20.8931C104.237 20.8893 105.655 20.8873 107.075 20.8816C107.099 20.8816 107.121 20.8816 107.145 20.8816C107.264 20.8778 107.275 20.8701 107.242 20.7567C107.212 20.6511 107.18 20.5358 107.135 20.4282ZM100.563 15.1089C99.6222 15.1492 98.6817 15.1857 97.7428 15.2222C96.7899 15.2587 95.8392 15.2933 94.8862 15.3279C94.6601 15.3355 94.6929 15.3375 94.7675 15.1684C95.5385 13.4088 96.3015 11.6433 97.0521 9.87596C97.1556 9.63581 97.3048 9.45909 97.567 9.37843C97.8903 9.28043 98.2052 9.37649 98.3747 9.64545C98.4228 9.72229 98.4612 9.80489 98.498 9.88749C99.2407 11.5588 99.9732 13.2359 100.694 14.9148C100.772 15.0993 100.772 15.1012 100.563 15.1089Z" fill="black"/>
<path d="M129.948 20.7015C127.731 17.5452 125.377 14.4447 122.81 11.5382C122.681 11.3941 122.551 11.25 122.422 11.1059C122.279 10.9464 122.285 10.9925 122.43 10.8023C122.519 10.6891 122.61 10.5795 122.701 10.4662C123.377 9.60939 124.053 8.73536 124.727 7.84399C125.585 6.71246 126.439 5.55025 127.295 4.36305C127.862 3.57542 128.432 2.77627 128.997 1.95982C129.175 1.70433 129.342 1.4373 129.511 1.1722C129.542 1.12417 129.56 1.0627 129.584 1.00891C129.54 1.00891 129.496 1.00315 129.451 1.01083C128.345 1.22791 127.239 1.44115 126.133 1.65054C125.567 1.75619 125.002 1.86377 124.437 1.96367C124.346 1.97904 124.288 2.02514 124.229 2.12311C124.1 2.34211 123.964 2.55919 123.817 2.7609C123.341 3.41405 122.857 4.05184 122.376 4.68386C121.496 5.84417 120.615 6.97566 119.735 8.08026C119.576 8.28003 119.604 8.27427 119.453 8.11101C118.753 7.35409 118.052 6.61064 117.352 5.88259C116.815 5.32549 116.276 4.78183 115.743 4.23433C115.571 4.0576 115.408 3.87126 115.261 3.66955C115.185 3.56581 115.115 3.53124 114.988 3.55044C113.212 3.82707 111.433 4.08257 109.659 4.32847C109.623 4.33423 109.588 4.33615 109.552 4.34384C109.475 4.3592 109.461 4.38034 109.506 4.43796C109.59 4.54747 109.675 4.65888 109.776 4.75302C110.242 5.18525 110.717 5.61364 111.185 6.05166C111.95 6.76819 112.713 7.49819 113.476 8.24352C114.505 9.24824 115.535 10.2779 116.562 11.3383C116.714 11.4939 116.716 11.4594 116.562 11.6419C115.785 12.5716 115.008 13.4803 114.231 14.3716C113.266 15.4782 112.301 16.5559 111.336 17.6086C110.472 18.5499 109.608 19.4701 108.749 20.3749C108.617 20.5132 108.502 20.6688 108.385 20.8186C108.343 20.8724 108.351 20.884 108.421 20.8859C108.462 20.8878 108.504 20.8859 108.545 20.8859C110.212 20.8821 111.879 20.8763 113.547 20.8706C113.583 20.8706 113.618 20.8686 113.654 20.8706C113.71 20.8744 113.75 20.8513 113.791 20.8033C114.005 20.5478 114.221 20.2904 114.443 20.0407C115.388 18.9841 116.335 17.9064 117.279 16.798C117.911 16.0564 118.543 15.2995 119.174 14.5311C119.205 14.4946 119.235 14.4619 119.263 14.4236C119.306 14.3621 119.34 14.3755 119.378 14.4236C119.429 14.4889 119.481 14.5503 119.534 14.6118C120.394 15.6165 121.254 16.6462 122.116 17.6989C122.814 18.5538 123.512 19.4221 124.211 20.3115C124.296 20.421 124.382 20.5343 124.447 20.6611C124.514 20.7937 124.594 20.836 124.721 20.836C125.644 20.8263 126.567 20.8263 127.489 20.8225C128.393 20.8186 128.884 20.8168 129.788 20.8129C129.825 20.8129 129.859 20.8148 129.895 20.811C129.923 20.8091 129.953 20.8014 129.982 20.7956C129.972 20.7649 129.966 20.7284 129.948 20.7015Z" fill="black"/>
<path d="M59.4053 12.1814C59.2555 11.4322 58.965 10.731 58.5716 10.0663C58.0244 9.14035 57.3077 8.35657 56.4136 7.7207C55.1237 6.80435 53.6542 6.35678 52.0615 6.24919C51.6618 6.22227 49.1245 6.22227 48.7228 6.21651C48.4301 6.21075 48.1374 6.21651 47.8467 6.21457C47.0554 6.21651 45.8382 6.20116 45.049 6.27412C44.5706 6.31833 44.0962 6.39135 43.6319 6.50851C42.0574 6.90617 40.7373 7.68801 39.6816 8.86945C39.1103 9.5092 38.6622 10.22 38.3392 10.9999C37.9436 11.9585 37.778 12.9536 37.8184 13.9833C37.8366 14.4232 37.8769 14.8593 37.9738 15.2896C38.3412 16.9398 39.185 18.3229 40.5394 19.4179C41.3832 20.0999 42.3441 20.5878 43.4079 20.8875C44.2476 21.1238 45.1095 21.2218 45.9815 21.2313C46.7849 21.241 50.1519 21.2371 50.9553 21.2333C51.2904 21.2313 51.6235 21.2179 51.9586 21.2064C52.4269 21.1891 52.8891 21.1257 53.3494 21.0335C55.1176 20.6762 56.5995 19.8521 57.7622 18.5361C58.9327 17.2106 59.516 15.6642 59.5686 13.9372C59.5765 13.672 59.5664 13.405 59.5426 13.1419C59.5081 12.8191 59.4674 12.4983 59.4053 12.1814ZM54.6958 15.7218C54.1245 16.5095 53.3292 16.9858 52.3421 17.178C51.9767 17.249 51.6093 17.2817 51.2379 17.2817C50.812 17.2798 48.2504 17.2817 47.8245 17.2817C47.3622 17.2817 46.4721 17.2875 46.0098 17.2798C45.4527 17.2721 44.9036 17.2048 44.3869 17.0012C43.1394 16.5095 42.342 15.6469 42.1038 14.3732C41.8697 13.1188 42.2734 12.0411 43.2343 11.1651C43.7833 10.6657 44.4596 10.3813 45.2125 10.2699C45.5677 10.2161 45.925 10.1988 46.2843 10.2007C47.0756 10.2027 50.4285 10.2027 51.2198 10.2027C51.7022 10.2027 52.1806 10.2373 52.6428 10.3736C54.074 10.7982 54.9602 11.7107 55.265 13.1034C55.4709 14.0409 55.2731 14.9265 54.6958 15.7218Z" fill="black"/>
<path d="M85.2959 15.3199C85.2959 13.9713 85.2981 12.6228 85.2942 11.2722C85.2942 10.8343 85.2818 10.3963 85.2721 9.95824C85.2659 9.62401 85.2094 9.2955 85.1263 8.97274C84.9567 8.32153 84.6278 7.7548 84.1191 7.28994C83.6528 6.86348 83.0961 6.57336 82.4822 6.38705C81.7655 6.16994 81.0347 6.16036 80.3022 6.29869C79.7833 6.39664 79.3131 6.59834 78.9095 6.92686C78.6427 7.14391 78.4025 7.38601 78.1849 7.64915C77.8175 8.09295 77.5388 8.58473 77.2924 9.09379C76.8606 9.99092 76.4242 10.8861 75.9907 11.7813C75.3141 13.176 74.6398 14.5688 73.9638 15.9634C73.9418 16.0095 73.9192 16.0556 73.8909 16.096C73.7395 16.3054 73.4207 16.3073 73.2652 16.0979C73.2353 16.0576 73.211 16.0115 73.1906 15.9673C72.7989 15.1624 72.4095 14.3574 72.0178 13.5525C71.2711 12.0118 70.5239 10.4731 69.7773 8.93241C69.428 8.21394 68.9758 7.56849 68.358 7.03251C68.0794 6.79047 67.7685 6.59834 67.4175 6.46389C67.1066 6.34672 66.7856 6.27371 66.4527 6.23914C66.0327 6.19493 65.6128 6.19881 65.1951 6.26412C64.6762 6.34284 64.198 6.52727 63.7458 6.78083C62.8714 7.26878 62.3108 7.98149 62.0423 8.90743C61.8925 9.42037 61.8586 9.94671 61.8586 10.4731C61.8541 13.9041 61.8563 17.3351 61.8563 20.766C61.8563 20.962 61.832 20.9447 62.044 20.9447C63.2128 20.9447 64.3817 20.9447 65.5506 20.9447C65.7704 20.9447 65.7704 20.9447 65.7704 20.7334C65.7704 17.5636 65.7704 14.3939 65.7704 11.2242C65.7704 11.1512 65.7682 11.0801 65.7744 11.0072C65.7885 10.8438 65.9157 10.719 66.0853 10.6921C66.2328 10.6691 66.3538 10.7363 66.4323 10.8861C66.4487 10.9149 66.4628 10.9457 66.477 10.9764C67.1309 12.2635 67.7849 13.5525 68.4388 14.8396C69.2804 16.4955 70.1226 18.1534 70.9642 19.8113C71.0773 20.0322 71.2044 20.2416 71.378 20.426C71.7069 20.7775 72.1269 20.985 72.5954 21.1138C73.0657 21.2424 73.5461 21.277 74.0345 21.2175C74.4804 21.1617 74.9004 21.0407 75.2859 20.8198C75.6838 20.5931 75.9664 20.2685 76.1659 19.8728C76.6102 18.9929 77.0561 18.115 77.5044 17.2371C78.3765 15.5197 79.2486 13.8042 80.1224 12.0868C80.3282 11.6834 80.5362 11.2799 80.738 10.8727C80.7968 10.7535 80.8895 10.6921 81.0245 10.6902C81.2043 10.6863 81.3659 10.8189 81.3863 10.9899C81.3965 11.0667 81.3919 11.1454 81.3919 11.2223C81.3919 14.4036 81.3919 17.5848 81.3919 20.766C81.3919 20.9658 81.3637 20.9447 81.5756 20.9447C82.7507 20.9447 83.9252 20.9447 85.1003 20.9447C85.3366 20.9447 85.3061 20.9697 85.3061 20.7507C85.2959 18.9391 85.2959 17.1295 85.2959 15.3199Z" fill="black"/>
</mask>
<g mask="url(#mask0_241_943)">
<path d="M129.947 -0.0791016H0.0429688V21.6959H129.947V-0.0791016Z" fill="url(#paint0_linear_241_943)"/>
</g>
</g>
<defs>
<linearGradient id="paint0_linear_241_943" x1="0.0429688" y1="10.808" x2="129.947" y2="10.808" gradientUnits="userSpaceOnUse">
<stop stop-color="#00A8FF"/>
<stop offset="0.1219" stop-color="#18A3FE"/>
<stop offset="0.510417" stop-color="#5696FC"/>
<stop offset="0.75" stop-color="#B982F8"/>
<stop offset="1" stop-color="#FF74F5"/>
</linearGradient>
<clipPath id="clip0_241_943">
<rect width="130" height="21" fill="white" transform="translate(0 0.5)"/>
</clipPath>
</defs>
</svg>
