<svg width="112" height="112" viewBox="0 0 112 112" fill="none" xmlns="http://www.w3.org/2000/svg">
<path d="M99.556 12.4443H12.4449C10.7946 12.4443 9.212 13.0999 8.0451 14.2668C6.87821 15.4337 6.22266 17.0163 6.22266 18.6666V93.3332C6.22266 94.9835 6.87821 96.5661 8.0451 97.733C9.212 98.8999 10.7946 99.5555 12.4449 99.5555H99.556C101.206 99.5555 102.789 98.8999 103.956 97.733C105.123 96.5661 105.778 94.9835 105.778 93.3332V18.6666C105.778 17.0163 105.123 15.4337 103.956 14.2668C102.789 13.0999 101.206 12.4443 99.556 12.4443ZM12.4449 93.3332V18.6666H99.556V93.3332H12.4449Z" fill="#313131"/>
<path d="M27.7513 43.5553C29.5973 43.5553 31.4018 43.008 32.9366 41.9824C34.4715 40.9568 35.6678 39.4992 36.3742 37.7937C37.0806 36.0883 37.2654 34.2117 36.9053 32.4012C36.5452 30.5907 35.6563 28.9276 34.351 27.6223C33.0457 26.3171 31.3826 25.4281 29.5721 25.068C27.7617 24.7079 25.885 24.8927 24.1796 25.5991C22.4741 26.3056 21.0165 27.5018 19.9909 29.0367C18.9654 30.5715 18.418 32.3761 18.418 34.222C18.418 36.6974 19.4013 39.0713 21.1516 40.8217C22.902 42.572 25.2759 43.5553 27.7513 43.5553ZM27.7513 29.2442C28.7371 29.2381 29.7026 29.5248 30.5252 30.068C31.3479 30.6112 31.9908 31.3864 32.3723 32.2954C32.7538 33.2045 32.8568 34.2063 32.6683 35.1739C32.4798 36.1416 32.0082 37.0314 31.3132 37.7307C30.6184 38.43 29.7315 38.9071 28.765 39.1017C27.7986 39.2963 26.7961 39.1996 25.8848 38.8238C24.9734 38.448 24.1941 37.81 23.6458 36.9907C23.0974 36.1715 22.8047 35.2078 22.8046 34.222C22.8128 32.9126 23.3366 31.6591 24.2625 30.7332C25.1884 29.8073 26.4419 29.2835 27.7513 29.2753V29.2442Z" fill="#313131"/>
<path d="M70.8713 47.8178L54.0713 64.6178L41.6269 52.1733C41.044 51.5939 40.2554 51.2686 39.4335 51.2686C38.6116 51.2686 37.8231 51.5939 37.2402 52.1733L18.418 71.2444V80.0489L39.5424 58.9244L49.778 69.0044L38.1113 80.6711H46.6669L72.9557 54.3822L93.3335 74.6667V65.8933L75.258 47.8178C74.6751 47.2383 73.8865 46.9131 73.0646 46.9131C72.2427 46.9131 71.4542 47.2383 70.8713 47.8178Z" fill="#313131"/>
</svg>
