<svg width="20" height="18" viewBox="0 0 20 18" fill="none" xmlns="http://www.w3.org/2000/svg">
<path id="Icon" d="M13 12.5C12.7164 11.3589 11.481 10.5 10 10.5C8.519 10.5 7.28364 11.3589 7 12.5M10 6.5H10.01M11 6.5C11 7.05228 10.5523 7.5 10 7.5C9.44772 7.5 9 7.05228 9 6.5C9 5.94772 9.44772 5.5 10 5.5C10.5523 5.5 11 5.94772 11 6.5ZM4.6 1H15.4C16.6601 1 17.2902 1 17.7715 1.21799C18.1948 1.40973 18.539 1.71569 18.7548 2.09202C19 2.51984 19 3.0799 19 4.2V13.8C19 14.9201 19 15.4802 18.7548 15.908C18.539 16.2843 18.1948 16.5903 17.7715 16.782C17.2902 17 16.6601 17 15.4 17H4.6C3.33988 17 2.70982 17 2.22852 16.782C1.80516 16.5903 1.46095 16.2843 1.24524 15.908C1 15.4802 1 14.9201 1 13.8V4.2C1 3.0799 1 2.51984 1.24524 2.09202C1.46095 1.71569 1.80516 1.40973 2.22852 1.21799C2.70982 1 3.33988 1 4.6 1Z" stroke="#313131" stroke-width="2" stroke-linecap="round" stroke-linejoin="round"/>
</svg>
