<svg width="20" height="20" viewBox="0 0 20 20" fill="none" xmlns="http://www.w3.org/2000/svg">
<path d="M13.4998 3.50067L16.3282 6.3291M11 19H19M1 19.0004L1.04745 18.6683C1.21536 17.4929 1.29932 16.9052 1.49029 16.3565C1.65975 15.8697 1.89124 15.4067 2.17906 14.979C2.50341 14.497 2.92319 14.0772 3.76274 13.2377L15.4107 1.58969C16.1918 0.808645 17.4581 0.808643 18.2392 1.58969C19.0202 2.37074 19.0202 3.63707 18.2392 4.41812L6.37744 16.2798C5.61579 17.0415 5.23497 17.4223 4.8012 17.7252C4.41618 17.994 4.00093 18.2167 3.56398 18.3887C3.07171 18.5824 2.54375 18.6889 1.48793 18.902L1 19.0004Z" stroke="#313131" stroke-width="1.5" stroke-linecap="round" stroke-linejoin="round"/>
</svg>
